<?xml version="1.0" encoding="UTF-8" standalone="no"?>
<!-- Created with Inkscape (http://www.inkscape.org/) -->

<svg
   xmlns:dc="http://purl.org/dc/elements/1.1/"
   xmlns:cc="http://creativecommons.org/ns#"
   xmlns:rdf="http://www.w3.org/1999/02/22-rdf-syntax-ns#"
   xmlns:svg="http://www.w3.org/2000/svg"
   xmlns="http://www.w3.org/2000/svg"
   xmlns:sodipodi="http://sodipodi.sourceforge.net/DTD/sodipodi-0.dtd"
   xmlns:inkscape="http://www.inkscape.org/namespaces/inkscape"
   width="4in"
   height="4in"
   viewBox="0 0 360.00001 360.00001"
   id="svg3396"
   version="1.1"
   inkscape:version="0.91 r13725"
   sodipodi:docname="pig.svg">
  <defs
     id="defs3398" />
  <sodipodi:namedview
     id="base"
     pagecolor="#ffffff"
     bordercolor="#666666"
     borderopacity="1.0"
     inkscape:pageopacity="0.0"
     inkscape:pageshadow="2"
     inkscape:zoom="1.8321599"
     inkscape:cx="151.05801"
     inkscape:cy="201.7037"
     inkscape:document-units="in"
     inkscape:current-layer="g3458"
     showgrid="true"
     units="in"
     inkscape:snap-grids="false">
    <inkscape:grid
       type="xygrid"
       id="grid3404" />
  </sodipodi:namedview>
  <metadata
     id="metadata3401">
    <rdf:RDF>
      <cc:Work
         rdf:about="">
        <dc:format>image/svg+xml</dc:format>
        <dc:type
           rdf:resource="http://purl.org/dc/dcmitype/StillImage" />
        <dc:title />
      </cc:Work>
    </rdf:RDF>
  </metadata>
  <g
     inkscape:label="Layer 1"
     inkscape:groupmode="layer"
     id="layer1"
     transform="translate(0,-692.36217)">
    <g
       id="g3458"
       transform="translate(-33.339063,491.93509)">
      <ellipse
         style="fill:#000000;fill-opacity:1;stroke:#000000;stroke-width:1.15641797"
         id="path3499"
         cx="113.21581"
         cy="413.01566"
         rx="4.7754121"
         ry="8.5196342" />
      <ellipse
         style="fill:#000000;fill-opacity:1;stroke:#000000;stroke-width:1.15641797"
         id="path3499-7"
         cx="128.29234"
         cy="413.48611"
         rx="4.7754121"
         ry="8.5196342" />
      <ellipse
         style="fill:#000000;fill-opacity:1;stroke:#000000;stroke-width:0.64839709"
         id="path3482-8"
         cx="158.97852"
         cy="381.12045"
         rx="5.445447"
         ry="4.2667108" />
      <ellipse
         style="fill:#000000;fill-opacity:1;stroke:#000000;stroke-width:0.64839709"
         id="path3482"
         cx="134.57175"
         cy="378.55499"
         rx="5.445447"
         ry="4.2667108" />
      <path
         inkscape:connector-curvature="0"
         id="path3439"
         d="m 201.8549,494.05508 c -1.78684,-2.36691 -2.84441,-3.45102 -3.48621,-3.57371 -0.5067,-0.0969 -3.2023,-0.0941 -5.9902,0.006 -3.72025,0.1338 -5.06892,0.07 -5.06892,-0.23974 0,-0.23213 0.58091,-1.57559 1.29091,-2.98547 0.71001,-1.40988 1.85764,-3.97379 2.55028,-5.69759 1.22314,-3.04399 1.76937,-3.95188 5.59158,-9.2937 2.53933,-3.5489 8.92054,-16.60831 11.57433,-23.68734 1.22337,-3.26335 2.15266,-6.12008 2.06508,-6.3483 -0.0876,-0.22821 -1.80357,-1.44421 -3.81333,-2.70221 -2.00975,-1.258 -4.40678,-2.86199 -5.32672,-3.56442 -2.09098,-1.59658 -2.2375,-1.5713 -8.58631,1.48124 l -4.89889,2.35542 -1.88518,4.45721 c -5.22421,12.35184 -9.03624,24.80633 -9.08511,29.68249 -0.009,0.87276 -0.23419,2.1575 -0.50098,2.85498 -0.2668,0.69748 -1.30449,3.52768 -2.30597,6.28934 -1.00149,2.76166 -1.97689,5.1772 -2.16756,5.36787 -0.22069,0.22069 -1.76866,-0.97867 -4.25937,-3.30015 -2.15198,-2.00575 -4.19761,-3.64682 -4.54585,-3.64682 -0.34824,0 -2.77715,0.50639 -5.39757,1.12531 -2.62042,0.61893 -4.82258,1.06713 -4.8937,0.99602 -0.1024,-0.1024 0.55743,-4.84016 1.70836,-12.26646 0.0463,-0.29892 -0.36135,-2.34738 -0.90596,-4.55213 -1.16424,-4.71329 -2.06336,-10.68619 -2.06913,-13.74533 -0.005,-2.60721 0.89374,-6.45556 2.87275,-12.3021 2.0611,-6.08909 2.00323,-6.45298 -1.28948,-8.10764 -2.34908,-1.18047 -4.49735,-1.26483 -11.47995,-0.45077 -4.67856,0.54544 -8.65146,0.75084 -14.49303,0.74929 -9.11391,-0.003 -14.12197,-0.57801 -17.16992,-1.97342 -4.86194,-2.22586 -8.73206,-8.5392 -10.2938,-16.79227 -0.975362,-5.15435 0.41752,-11.34284 3.62898,-16.12334 2.36944,-3.52709 3.64588,-4.59323 8.29021,-6.92433 2.1305,-1.06935 4.14435,-2.24798 4.47523,-2.61917 0.92616,-1.03903 1.59659,-3.93044 3.01292,-12.99398 0.71624,-4.58343 1.5376,-8.98569 1.82525,-9.7828 0.28765,-0.79712 1.16096,-3.97653 1.94069,-7.06536 1.31826,-5.22219 1.37632,-5.6628 0.82795,-6.28273 -0.45728,-0.51695 -0.89725,-0.6175 -1.95898,-0.44773 -2.36794,0.37865 -4.14899,1.29281 -8.34033,4.28082 -5.67521,4.04588 -7.74583,4.98528 -10.98934,4.98564 -1.41503,1.5e-4 -3.127023,-0.18995 -3.804418,-0.42246 -1.995451,-0.68492 -6.10825,-3.55719 -8.938642,-6.24252 -3.085055,-2.92694 -4.860604,-5.49297 -8.426762,-12.1784 -1.434254,-2.68877 -3.825605,-6.65361 -5.314113,-8.81075 -1.488508,-2.15715 -2.936161,-4.47203 -3.217007,-5.14418 -0.280845,-0.67216 -1.90913,-6.06854 -1.188854,-7.92685 l 0.498471,-0.33096 0.936125,-0.38691 c 0.632833,-0.26155 3.020484,-0.29324 5.208488,-0.41845 2.493974,-0.14272 4.859615,-0.51327 6.340703,-0.99321 2.54264,-0.82394 11.824574,-5.45476 16.065729,-8.0153 4.57934,-2.76473 4.8627,-2.8627 8.76099,-3.02916 4.46287,-0.19056 7.97287,0.49004 11.73068,2.27462 4.59221,2.18082 7.93881,4.82152 17.40327,13.73232 7.2309,6.8079 8.36923,7.18731 13.98283,4.66037 4.36923,-1.9668 9.04269,-3.59479 13.26214,-4.61985 2.9295,-0.71169 4.84765,-0.88253 12.13792,-1.08107 l 8.65857,-0.23579 3.07977,1.31646 c 4.56639,1.95193 4.35766,1.9586 6.24568,-0.1997 2.28338,-2.61023 3.53712,-5.21239 3.53712,-7.3413 0,-0.94749 -0.56408,-4.20608 -1.25351,-7.24132 -0.68943,-3.03524 -1.50466,-7.55182 -1.81163,-10.03686 -0.62679,-5.07422 -0.72215,-12.81042 -0.18651,-15.13169 0.63568,-2.75482 1.06566,-6.49435 1.4535,-12.64116 0.2097,-3.32337 0.55384,-6.36495 0.76475,-6.75905 0.33935,-0.63407 0.66072,-0.69608 2.79182,-0.53865 1.45842,0.10774 3.33724,0.56904 4.76345,1.16955 3.36901,1.41856 11.91774,6.27693 13.3608,7.59314 0.67259,0.61346 4.66723,5.08387 8.87699,9.93424 4.20975,4.85037 9.13467,10.5225 10.94427,12.60474 5.10317,5.87203 7.40708,11.00031 8.02774,17.86897 l 0.27651,3.05997 9.42047,0.0679 c 9.71485,0.07 14.76073,0.52461 22.10188,1.99127 13.2392,2.645 26.9982,9.07996 37.50073,17.53875 1.69387,1.36425 3.27576,2.63041 3.51529,2.8137 0.78439,0.60017 1.88246,-0.0987 3.90969,-2.48826 1.09752,-1.29369 1.99549,-2.47207 1.99549,-2.6186 0,-0.14653 -1.08787,-0.9028 -2.41749,-1.6806 -1.32963,-0.7778 -3.43672,-2.36761 -4.68244,-3.53292 -5.25013,-4.91124 -6.70642,-9.90353 -4.35251,-14.92085 2.24801,-4.79163 7.01304,-7.32662 13.23123,-7.03901 4.85207,0.22442 8.90336,2.86105 11.10077,7.22452 1.01152,2.00861 1.2563,2.91993 1.27801,4.75805 0.0367,3.1099 0.43048,5.44695 0.94656,5.61813 0.48511,0.16091 2.77702,-2.62385 5.8092,-7.05839 1.12413,-1.64406 2.29121,-2.98919 2.59349,-2.98919 0.30228,0 1.74029,0.68126 3.19559,1.51392 1.84076,1.0532 2.64599,1.72544 2.64599,2.20898 0,1.12088 -3.71257,6.49495 -6.55174,9.48385 -1.44237,1.51845 -3.80744,3.55334 -5.25571,4.52201 -2.44357,1.63436 -3.75714,2.19383 -7.60262,3.2381 -1.12792,0.3063 -1.76447,0.8066 -2.70562,2.1265 -0.67688,0.94927 -2.4181,3.12737 -3.86937,4.8402 -1.45128,1.71284 -2.63869,3.28784 -2.63869,3.50002 0,0.21217 1.23994,2.15322 2.75542,4.31343 2.92357,4.16736 6.70145,11.31682 8.20211,15.5221 0.49779,1.39495 1.36791,4.41132 1.9336,6.70303 0.9662,3.91426 1.02916,4.63878 1.03897,11.95675 0.01,7.13204 -0.0726,8.17565 -0.97266,12.35588 -1.22576,5.69288 -2.6964,9.913 -5.17957,14.86314 -3.5647,7.10616 -6.21719,10.72017 -12.78155,17.41488 l -4.15211,4.23457 1.13317,6.27288 c 0.62324,3.45009 1.23623,7.49574 1.36219,8.99033 0.39431,4.67867 -1.03031,11.74123 -3.98319,19.74676 -0.88038,2.3868 -0.93597,2.93478 -0.94316,9.29776 l -0.008,6.76148 -2.25441,-0.52592 c -1.23992,-0.28925 -3.61183,-0.91945 -5.27091,-1.40043 l -3.01651,-0.87452 -3.33433,2.79871 c -4.19967,3.52505 -6.03105,4.91816 -6.21872,4.73048 -0.081,-0.081 -0.48479,-1.80366 -0.89736,-3.82819 -0.41257,-2.02453 -1.09168,-4.46748 -1.50912,-5.42877 -0.59285,-1.36523 -0.83588,-3.01674 -1.1103,-7.54501 -0.59585,-9.83249 -2.56693,-20.14845 -4.15279,-21.7343 -0.6148,-0.61481 -1.5887,-0.48009 -5.65138,0.78177 l -2.79928,0.86945 -1.26112,3.98263 c -0.69361,2.19046 -1.59071,6.14316 -1.99354,8.78379 -0.57399,3.76255 -1.21043,6.13134 -2.9421,10.9503 -1.21532,3.38203 -2.32825,6.27206 -2.47319,6.42229 -0.14493,0.15022 -2.00669,-1.35797 -4.13724,-3.35152 -2.13055,-1.99355 -4.10155,-3.62464 -4.38001,-3.62464 -0.27846,0 -2.58214,0.49609 -5.11928,1.10243 -2.53714,0.60633 -4.70082,1.0146 -4.80817,0.90725 -0.25525,-0.25525 0.63143,-8.18174 1.17849,-10.53513 0.38518,-1.65698 0.32839,-2.16584 -0.60684,-5.4377 -0.56748,-1.98531 -1.19016,-4.18032 -1.38374,-4.8778 -0.19358,-0.69748 -0.4867,-1.47644 -0.65136,-1.73103 -0.35485,-0.54863 -4.58139,-1.29432 -5.71853,-1.00891 -1.17457,0.2948 -2.95971,3.23184 -7.59422,12.49455 -2.49218,4.98098 -4.82879,9.13834 -5.82008,10.35525 -2.46615,3.02746 -6.63695,6.41645 -11.50238,9.34628 -2.38359,1.43534 -4.91764,3.19033 -5.63122,3.89998 -1.57044,1.5618 -6.18882,7.74584 -6.18882,8.28687 0,0.21544 -0.89742,1.15869 -1.78297,1.15869 -1.58305,0 -1.40823,-0.78678 -3.96195,-4.16947 z m -28.60463,-16.98324 c 0.6183,-0.48936 1.1323,-2.51175 1.7266,-6.79361 0.54907,-3.95586 6.07577,-20.88285 8.56103,-26.22039 1.19305,-2.5623 1.16291,-3.28579 -0.12334,-2.96048 -5.15346,1.30339 -15.92068,-0.43059 -22.08983,-3.55741 -1.03959,-0.52691 -2.06103,-0.95802 -2.26986,-0.95802 -0.72578,0 -1.84173,2.3845 -3.46848,7.41126 -2.11723,6.54239 -2.45206,10.75907 -1.29599,16.32108 1.31018,6.30345 1.75523,7.43937 3.62523,9.25302 3.4946,3.3893 11.38468,7.92175 13.83525,7.94766 0.50993,0.005 1.18466,-0.19401 1.49939,-0.44311 z m 116.78172,-28.11672 c 0.9836,3.01745 1.75434,6.20122 1.97696,8.16643 0.20068,1.77152 0.52873,4.08496 0.72901,5.14099 0.20027,1.05603 0.54622,4.63671 0.76877,7.95706 0.22256,3.32036 0.58548,6.25934 0.8065,6.53109 0.86418,1.06249 3.62792,0.22135 8.85437,-2.69483 10.04687,-5.6058 11.12673,-6.90238 13.40612,-16.09671 0.77712,-3.13464 0.94492,-4.66557 0.95312,-8.69582 0.009,-4.37352 -0.17242,-5.83125 -1.71259,-13.76838 -2.04134,-10.5199 -1.94131,-10.14569 -1.74605,-11.77453 1.53559,-1.63153 1.63452,-1.33206 2.38421,2.66332 0.27496,1.46541 0.65924,2.8237 0.85395,3.01841 0.35772,0.35772 3.19372,-3.33157 5.80333,-6.07009 2.41116,-2.53025 7.83158,-10.74014 9.79291,-14.75395 3.49339,-7.14914 5.15297,-15.31985 5.12621,-24.53344 -0.019,-6.54182 -0.53895,-11.50576 -2.23846,-17.34759 -1.21223,-4.16684 -4.38689,-10.6392 -6.43271,-13.31599 -0.88149,-1.15335 -1.78041,-2.60153 -2.47699,-3.69757 -0.69658,-1.09603 -1.55395,-2.97329 -2.38464,-3.93198 -0.8307,-0.9587 -1.31424,-2.39897 -1.31424,-2.48151 0,-0.0825 0.45748,-0.0586 1.01662,0.0533 0.84985,0.16997 1.22131,-0.0276 2.26453,-1.20416 1.11101,-1.25305 4.27007,-5.18258 5.23351,-6.5099 0.48011,-0.66145 -0.25461,-1.111 -2.32806,-1.42446 -1.55616,-0.23526 -1.64413,-0.19553 -2.98546,1.34815 -0.76013,0.8748 -1.97939,2.44349 -2.70947,3.48598 -0.73009,1.04248 -1.62971,1.99137 -1.99917,2.10863 -0.48903,0.15521 -2.01376,-0.48925 -4.05604,-2.36923 -6.56212,-6.04064 -17.07461,-11.60806 -25.15259,-14.39577 -2.25642,-0.77869 -5.27382,-2.0199 -6.4695,-2.52238 -2.39518,-1.00658 -7.56922,-2.20703 -13.72115,-3.20345 -4.75025,-0.76939 -23.7463,-1.75111 -24.45677,-1.04204 -0.21995,0.21952 -0.62277,1.88237 -0.89517,3.69524 -0.82912,5.51806 -1.26643,7.1572 -2.37642,8.90747 -2.00123,3.15561 -5.92395,5.19593 -15.32434,7.97064 -5.68345,1.67759 -12.04864,4.47492 -12.4272,5.46144 -0.1916,0.49928 1.8294,4.35475 5.04541,9.62521 2.04309,3.34824 5.7267,14.20255 6.4529,19.01442 0.29715,1.96895 0.48699,6.20379 0.47916,10.68862 -0.0231,13.25712 -1.92537,21.01556 -7.01806,28.62374 -0.73366,1.09604 -2.76355,4.15518 -4.51087,6.79809 -2.09517,3.16904 -3.76268,5.26643 -4.8971,6.15954 -6.99291,5.50542 -10.6204,8.53207 -10.70898,8.90662 -0.14282,0.60389 0.59962,1.08256 4.96046,3.74632 3.5394,2.162 3.4251,2.78641 5.5486,2.80849 1.6554,0.0172 2.45708,0.20049 2.99102,0.68379 0.75259,0.68119 1.73937,2.68357 1.4601,2.96284 -0.0868,0.0868 -0.77669,-0.0322 -1.53313,-0.26433 -1.27856,-0.3924 -1.42236,-0.35979 -2.0433,0.46342 -0.36738,0.48703 -1.07925,1.94589 -1.58195,3.2419 -4.6963,12.10747 -6.31153,15.93323 -7.3872,17.49697 -0.68893,1.00154 -1.62626,2.66588 -2.08295,3.69853 -0.45669,1.03265 -2.32383,4.10288 -4.14921,6.82274 -1.82537,2.71986 -3.26461,5.22692 -3.1983,5.57126 0.42641,2.21414 7.47086,3.94852 16.4341,4.04614 l 4.3618,0.0475 3.60937,-2.19979 0,-3e-5 c 1.98516,-1.20989 4.44562,-2.83072 5.46769,-3.60186 2.22041,-1.67525 6.64938,-7.06431 7.88742,-9.5972 0.48702,-0.9964 1.99385,-4.14387 3.3485,-6.99439 1.35464,-2.85052 3.15173,-6.2745 3.99352,-7.60884 0.84179,-1.33435 1.41758,-2.5346 1.27954,-2.66723 -0.13805,-0.13262 -2.53365,-1.14469 -5.32356,-2.24904 -2.78991,-1.10434 -4.99104,-2.01581 -4.8914,-2.02549 0.0996,-0.01 1.13305,-0.17349 2.29647,-0.36403 1.8403,-0.30139 2.54686,-0.22386 5.43489,0.59635 3.56582,1.01271 6.6072,2.37063 6.8341,3.0513 0.31377,0.94134 10.99846,1.31101 20.041,0.69338 8.41746,-0.57494 20.4964,-3.42566 21.09204,-4.97789 0.10569,-0.27543 -0.0769,-1.10344 -0.40582,-1.84002 -0.32889,-0.73658 -1.24635,-3.45885 -2.03878,-6.04948 -1.66341,-5.43799 -1.78108,-5.08794 2.28181,-5.03564 -0.47904,1.81353 0.0343,3.78491 3.70761,15.05372 z m -17.92884,20.58103 c 0.19179,-0.35837 0.59608,-2.41684 0.89843,-4.5744 0.53122,-3.79094 2.0023,-10.80578 2.56319,-12.22269 0.25445,-0.64277 0.13651,-0.67604 -1.68928,-0.47652 -7.3258,0.80053 -9.50218,0.9737 -14.91598,1.18687 -3.54582,0.13962 -6.06896,0.38613 -6.06896,0.59294 0,0.19468 0.33772,1.68551 0.75049,3.31295 0.85337,3.36464 1.69754,4.47145 5.22789,6.8544 1.19567,0.80707 3.23376,2.2351 4.52907,3.1734 4.03743,2.92462 7.79486,3.85395 8.70515,2.15305 z M 182.237,438.60513 c 4.92556,-0.88418 14.08088,-4.75475 17.20928,-7.27553 0.79778,-0.64282 2.59183,-1.91551 3.98679,-2.82819 2.8933,-1.89301 9.47551,-8.16002 11.68216,-11.12276 0.81633,-1.09603 2.17346,-3.21564 3.01585,-4.71023 0.84238,-1.4946 2.15542,-3.63939 2.91785,-4.76621 3.02413,-4.46945 4.80351,-11.08801 5.19639,-19.32846 0.29887,-6.26875 0.0661,-16.26929 -0.62849,-19.05989 -1.1849,-4.76055 -4.26218,-13.48291 -6.02094,-16.42466 -2.7854,-4.65895 -4.02901,-8.62435 -4.86187,-9.53859 l -0.74645,-0.81938 1.24462,-1.29635 c 1.83674,-1.91309 3.76975,-2.75445 11.95973,-5.20563 12.51582,-3.74586 15.1179,-5.46099 16.69535,-11.00452 0.73357,-2.57791 0.83809,-3.72238 0.81603,-8.935 -0.023,-5.43687 -0.11329,-6.25733 -0.99668,-9.05814 -1.50348,-4.76674 -2.45727,-6.38078 -6.42339,-10.86978 -2.02476,-2.29171 -5.12739,-5.79721 -6.89471,-7.79001 -1.76732,-1.99279 -4.47233,-5.1722 -6.01112,-7.06535 -4.74336,-5.83569 -7.45,-8.27691 -11.52719,-10.39682 -1.99096,-1.03518 -4.90971,-2.61882 -6.48611,-3.51919 -2.52622,-1.44288 -5.71901,-2.4389 -6.2181,-1.9398 -0.0956,0.0956 -0.33692,2.9278 -0.53626,6.29377 -0.19934,3.36597 -0.63661,7.58736 -0.97172,9.38088 -0.92137,4.93124 -0.81962,14.60843 0.2158,20.52316 0.44104,2.51946 1.2014,6.02496 1.68968,7.79001 1.11981,4.04795 1.18996,7.96311 0.18246,10.18267 -1.3864,3.05425 -5.2184,8.06303 -6.16868,8.06303 -0.31351,0 -2.03173,-0.60791 -3.81828,-1.3509 l -3.24827,-1.35091 -6.82547,-0.13285 c -12.11907,-0.23588 -17.31789,0.72504 -27.01891,4.99406 -4.45447,1.96022 -5.87313,2.30248 -7.60779,1.83538 -2.38179,-0.64135 -5.74357,-3.19691 -11.68447,-8.88233 -11.13122,-10.65252 -15.7345,-13.28878 -23.31412,-13.35178 -2.18243,-0.0182 -4.1927,0.1652 -5.05523,0.46106 -1.47816,0.50702 -6.032006,3.13224 -8.044474,4.63751 -1.394509,1.04305 -10.719891,5.31192 -13.296047,6.08652 -1.026118,0.30852 -3.496135,0.64638 -5.488927,0.75079 -5.222182,0.27359 -5.253726,0.28434 -5.253726,1.78924 0,1.67198 1.565482,5.05732 4.647821,10.05086 1.380048,2.23574 3.9224,6.51196 5.649671,9.50271 4.501484,7.79425 6.0747,9.80267 9.629953,12.2939 8.028209,5.62551 9.369979,5.43354 21.740029,-3.11056 2.87238,-1.98397 4.23403,-2.48314 6.77357,-2.48314 1.59278,0 2.12004,0.16484 2.84454,0.88934 1.28766,1.28766 1.16469,3.62627 -0.53788,10.22888 -1.53637,5.95811 -2.19216,9.25846 -3.11117,15.65732 -0.32625,2.2716 -0.75296,4.55046 -0.94826,5.06412 -0.19529,0.51367 -0.59228,2.06153 -0.88218,3.43969 -0.28991,1.37816 -0.83336,3.19808 -1.20767,4.04428 -0.59805,1.352 -0.93779,1.63433 -2.80215,2.32866 -1.16688,0.43457 -2.52921,1.1477 -3.0274,1.58473 -0.4982,0.43703 -1.49869,1.09359 -2.2233,1.459 -1.96438,0.99063 -4.06765,3.32378 -5.92546,6.57309 -3.64911,6.3823 -3.98089,10.78206 -1.32522,17.57385 1.89227,4.83946 4.0606,8.16476 6.29978,9.66126 4.25625,2.84453 13.72605,3.25585 35.73329,1.55208 4.6354,-0.35887 5.72321,-0.58045 9.96396,-2.02957 8.0677,-2.75684 20.19673,-9.63266 23.00764,-13.04278 0.60065,-0.7287 1.61184,-2.38066 2.24708,-3.67102 1.5526,-3.15378 1.74623,-5.76824 0.73959,-9.98618 -0.78436,-3.28659 -0.75677,-3.86206 0.18515,-3.86206 1.08247,0 2.06539,3.18771 2.23806,7.25829 0.15423,3.63575 0.10841,3.94412 -0.96908,6.52186 -1.6721,4.00024 -3.70323,6.30992 -8.26571,9.3993 -2.15314,1.45796 -4.2409,2.93685 -4.63946,3.28643 -0.57833,0.50726 -11.25429,5.26399 -14.07026,6.26908 -1.04947,0.37458 -0.5688,1.01726 2.13272,2.85157 5.32695,3.61695 10.29823,5.4569 16.3021,6.03367 4.63313,0.44508 5.11378,0.43897 8.13568,-0.10348 z M 337.49364,332.17488 c 2.74418,-0.58519 4.58903,-1.82705 8.89671,-5.98881 3.82383,-3.6943 6.13982,-6.875 6.13982,-8.43224 0,-0.91133 -1.94302,-1.96294 -3.09339,-1.67422 -0.54386,0.1365 -1.42839,1.153 -2.5015,2.87475 -2.01892,3.23922 -5.51122,6.67066 -8.18422,8.0416 -1.59036,0.81568 -2.59071,1.04622 -5.06184,1.16658 -3.02379,0.14727 -3.13461,0.12239 -6.09712,-1.36892 -3.3772,-1.70007 -6.97984,-4.91751 -7.85705,-7.01697 -0.97193,-2.32615 -0.72471,-3.78465 0.90415,-5.33415 2.75026,-2.61626 6.47889,-3.09497 10.15141,-1.30331 2.99753,1.46235 4.14247,5.92671 2.72137,10.61122 -0.82968,2.73498 -0.79745,2.80688 1.15934,2.58632 2.86772,-0.32324 3.61347,-2.13273 3.29082,-7.98484 -0.19719,-3.57671 -1.23217,-5.88111 -3.63691,-8.09773 -2.15671,-1.98799 -3.738,-2.48222 -7.88253,-2.4637 -2.79525,0.0125 -3.79899,0.17384 -5.34127,0.85855 -2.14077,0.95042 -4.18309,3.00913 -5.19426,5.23596 -0.90434,1.99155 -0.91277,5.70196 -0.0174,7.65849 1.58815,3.47042 8.06047,8.96926 12.09886,10.27911 3.66905,1.19006 5.29413,1.25029 9.50503,0.35231 l 1e-5,0 z m -6.75819,-7.13416 c 0.95445,-0.95445 2.01567,-5.12638 1.71359,-6.73658 -0.27539,-1.46794 -1.97659,-3.59722 -3.50585,-4.38803 -2.23536,-1.15595 -5.76613,-0.37977 -7.15686,1.57333 -1.46244,2.0538 -0.85806,3.66943 2.51427,6.72122 1.94887,1.76362 4.67235,3.4984 5.49362,3.49926 0.14946,1.6e-4 0.57301,-0.30098 0.94123,-0.6692 z"
         style="fill:#000000;fill-opacity:1;stroke:#000000;stroke-width:0.36232588"
         sodipodi:nodetypes="cccssssscssscsccsssssccscssscsssscssssssssssssscsssssssssscssssssscsssssscssscsssssssssssssssssssssscssscsssccsscscssssscssssssssssscsssssssccssssssssscssssscsscscssssssssssccssssssssssssscssssssssscsccsssscscccsssscscsscsscscssssssssssssssssssssscsssssssssssssssssscsssscsscsssssssssscsssssssssssssssssssssscssssssssssssssssssscccssssscs" />
    </g>
  </g>
</svg>
